<svg xmlns="http://www.w3.org/2000/svg" width="968" height="806" viewBox="0 0 968 806">
  <defs>
    <style>
      .cls-1 {
        fill: #5b00ff;
        fill-rule: evenodd;
        opacity: 0.3;
      }
    </style>
  </defs>
  <path id="cloudsNear" class="cls-1" d="M916,156h224a3,3,0,0,1,3,3v20a3,3,0,0,1-3,3H916a3,3,0,0,1-3-3V159A3,3,0,0,1,916,156Zm821,85h141a3,3,0,0,1,3,3v13a3,3,0,0,1-3,3H1737a3,3,0,0,1-3-3V244A3,3,0,0,1,1737,241ZM1252,940h227a3,3,0,0,1,3,3v16a3,3,0,0,1-3,3H1252a3,3,0,0,1-3-3V943A3,3,0,0,1,1252,940Z" transform="translate(-913 -156)"/>
</svg>
