<svg xmlns="http://www.w3.org/2000/svg" width="903" height="817" viewBox="0 0 903 817">
  <defs>
    <style>
      .cls-1 {
        fill: #5b00ff;
        fill-rule: evenodd;
        opacity: 0.15;
      }
    </style>
  </defs>
  <path id="cloudsFar" class="cls-1" d="M1111,273h183a3,3,0,0,1,3,3v15a3,3,0,0,1-3,3H1111a3,3,0,0,1-3-3V276A3,3,0,0,1,1111,273ZM1005,639h93a3,3,0,0,1,3,3v11a3,3,0,0,1-3,3h-93a3,3,0,0,1-3-3V642A3,3,0,0,1,1005,639Zm753,420h144a3,3,0,0,1,3,3v25a3,3,0,0,1-3,3H1758a3,3,0,0,1-3-3v-25A3,3,0,0,1,1758,1059ZM1502,619h61a3,3,0,0,1,3,3v3a3,3,0,0,1-3,3h-61a3,3,0,0,1-3-3v-3A3,3,0,0,1,1502,619Z" transform="translate(-1002 -273)"/>
</svg>
