<svg id="Layer_1" data-name="Layer 1" xmlns="http://www.w3.org/2000/svg" viewBox="0 0 501.22 501.22">
  <defs>
    <style>
      .cls-1 {
        fill: #111;
      }
    </style>
  </defs>
  <title>Dribble_logo</title>
  <g id="dribble">
    <path class="cls-1" d="M254.5,6.17C116.09,6.17,3.89,118.37,3.89,256.78S116.09,507.39,254.5,507.39s250.61-112.2,250.61-250.61S392.91,6.17,254.5,6.17Zm165.77,114A214.07,214.07,0,0,1,469.19,254.6c-3.12-.64-75.92-16.3-149.82-7-1.51-3.7-3.06-7.37-4.62-11.15-4.5-10.49-9.32-20.91-14.32-31.19C385.37,170.59,419.85,120.73,420.27,120.15ZM254.16,41.71A214.19,214.19,0,0,1,396.22,95.36c-.52.79-31.16,47.43-112.33,77.88A1095.76,1095.76,0,0,0,203.46,47.75,216.19,216.19,0,0,1,254.16,41.71ZM162.4,62.25a1295,1295,0,0,1,79.84,123.94C139,213.65,49.35,212.52,43.68,212.46A215.31,215.31,0,0,1,162.4,62.25ZM39.07,256.78c0-2.31.11-4.54.18-6.85,3.81.14,110.08,2.54,220.83-30.63,6.16,12.09,12.05,24.33,17.45,36.55-2.85.83-5.68,1.66-8.48,2.59C153,296,94.1,400.4,94.1,400.4a.4.4,0,0,1,.09.11A214.09,214.09,0,0,1,39.07,256.78ZM254.15,471.86A214,214,0,0,1,122,426.26c.4-.85,41.83-90,168.77-134.29.48-.15.95-.3,1.4-.48,30.28,78.67,42.77,144.53,46,163.33A214.07,214.07,0,0,1,254.15,471.86Zm120.21-36.68c-2.21-13-13.65-76.1-41.87-153.64,69.42-11.12,129.6,7.94,134,9.36A215.09,215.09,0,0,1,374.36,435.18Z" transform="translate(-3.89 -6.17)"/>
  </g>
</svg>
