<svg id="Layer_1" data-name="Layer 1" xmlns="http://www.w3.org/2000/svg" xmlns:xlink="http://www.w3.org/1999/xlink" viewBox="0 0 534.56 141.13">
  <defs>
    <style>
      .fillNoneFiverr {
        fill: none;
      }

      .clipPathFiverr {
        clip-path: url(#clip-path);
      }

      .fiverr-logo-color {
        fill: #111;
      }
    </style>
    <clipPath id="clip-path" transform="translate(0 0)">
      <rect class="fillNoneFiverr" width="534.56" height="141.13"/>
    </clipPath>
  </defs>
  <title>Fiverr_logo</title>
  <g class="clipPathFiverr">
    <g>
      <g class="clipPathFiverr">
        <path class="fiverr-logo-color" d="M113.3,116.24h11.58v22.58H70.24c-.25-.87-.35-20.49-.09-22.57,3.8,0,7.62,0,11.42,0,.26-.94.32-46.46.07-47.9H44.19c-.26.93-.3,46.61,0,47.89H57.66v22.59H.94V116.24H12.53v-48H0V45.63c4.14-.08,8.28,0,12.6-.05V44a52.81,52.81,0,0,1,.85-10.87c2.14-10.5,8.28-17.69,18-21.89A50,50,0,0,1,45.3,7.69a82.37,82.37,0,0,1,16.24-.18c1.12.09,2.24.27,3.4.41V32.49c-1.48-.12-2.92-.25-4.35-.34a34.37,34.37,0,0,0-9,.36A14.33,14.33,0,0,0,48,33.76a6.87,6.87,0,0,0-3.87,5.92c-.13,1.92,0,3.86,0,5.9h68.73l.21.18a.31.31,0,0,1,0,.1.27.27,0,0,1,0,.12l0,.24v69.21c0,.08,0,.17,0,.25a.49.49,0,0,0,0,.12l0,.11S113.22,116,113.3,116.24Z" transform="translate(0 0)"/>
      </g>
      <g class="clipPathFiverr">
        <path class="fiverr-logo-color" d="M263.74,80.7h26.45a2.51,2.51,0,0,0,.08-.62,30.14,30.14,0,0,0-.73-4.16c-1.1-3.6-3.16-6.54-6.74-8-4.92-2-9.49-1-13.51,2.31-3.15,2.56-4.65,6.14-5.6,10A1.42,1.42,0,0,0,263.74,80.7ZM322.23,128a47.7,47.7,0,0,1-6.42,4.31,66.49,66.49,0,0,1-24.36,8.11c-9.58,1.26-19.09.9-28.28-2.34-16.94-6-27.36-17.9-31.28-35.37a50.52,50.52,0,0,1,2.76-31.06c6.1-14.67,17.19-23.55,32.63-27a54.63,54.63,0,0,1,19.54-.74,39.17,39.17,0,0,1,33.91,29.33,53.47,53.47,0,0,1,1.8,19.46c-.12,1.29-.21,2.58-.34,3.87,0,.44-.13.87-.21,1.4H263a5.75,5.75,0,0,0,0,.91c2.37,10,9.64,14.81,17.6,15.94a34,34,0,0,0,13.93-1.13,56.28,56.28,0,0,0,15.23-6.79l1-.62Z" transform="translate(0 0)"/>
      </g>
      <g class="clipPathFiverr">
        <path class="fiverr-logo-color" d="M194.57,138.84h-37q-12.9-35.18-25.88-70.6H121.21V45.81c.86-.25,47.81-.34,49.56-.09v22.5h-8.18c.11.49.17.82.27,1.14q5.28,16.65,10.56,33.29a54.56,54.56,0,0,1,2.11,9.95c.07.54.18,1.07.27,1.63.82-.11.65-.66.7-1a52.89,52.89,0,0,1,1.88-9.5c1.17-3.79,2.39-7.55,3.59-11.33q3.6-11.38,7.21-22.77c.11-.38.21-.76.36-1.29h-8.15V45.68h49.45V68.2H220.46Q207.5,103.59,194.57,138.84Z" transform="translate(0 0)"/>
      </g>
      <g class="clipPathFiverr">
        <path class="fiverr-logo-color" d="M373.88,116.23H386.4v22.59H330c-.23-.87-.31-20.53-.07-22.56,4.11-.06,8.26,0,12.48,0,0-.5.06-.89.06-1.28,0-14.09,0-28.18,0-42.26,0-3-1.45-4.46-4.45-4.43-2.31,0-4.61,0-6.92,0-.39,0-.79,0-1.24-.06V45.71a6.52,6.52,0,0,1,.9-.1q14.82,0,29.63,0a16.82,16.82,0,0,1,5.25.85,9.3,9.3,0,0,1,6.62,7.64,16.16,16.16,0,0,1,.28,2.77c0,2.47,0,4.94,0,7.41a16.46,16.46,0,0,0,0,2.72c.17-.42.34-.83.5-1.25a34,34,0,0,1,15.24-18.08A28.74,28.74,0,0,1,401,44a17.69,17.69,0,0,1,4.73.38V75c-1.84-.13-3.64-.32-5.44-.37a30.53,30.53,0,0,0-10.65,1.41c-7.09,2.35-11.62,7.23-14,14.21A37.2,37.2,0,0,0,373.82,102c-.06,4.46,0,8.91,0,13.36C373.8,115.56,373.84,115.8,373.88,116.23Z" transform="translate(0 0)"/>
      </g>
      <g class="clipPathFiverr">
        <path class="fiverr-logo-color" d="M488.81,75c-1.59-.13-3-.27-4.49-.35a31.56,31.56,0,0,0-10.81,1.12c-7.73,2.28-12.58,7.46-15,15a36,36,0,0,0-1.63,10.39c-.08,4.74,0,9.47,0,14.21,0,.2,0,.39.07.76,4.15.07,8.3,0,12.51,0v22.57H412.89V116.28h12.47c0-.45.1-.8.1-1.14q0-21.37,0-42.74a4.26,4.26,0,0,0-.85-2.85,4.1,4.1,0,0,0-3.4-1.29c-2.3,0-4.61,0-6.92,0h-1.41V45.68c.36,0,.71-.08,1.06-.08h28.78a18.82,18.82,0,0,1,5.86.85,9.36,9.36,0,0,1,6.72,8,21,21,0,0,1,.24,3.26c0,3.07-.05,6.14-.09,9.39.17-.4.3-.69.41-1a34.24,34.24,0,0,1,14.56-17.92A28.77,28.77,0,0,1,484.08,44a18.05,18.05,0,0,1,4.73.39Z" transform="translate(0 0)"/>
      </g>
      <g class="clipPathFiverr">
        <path class="fiverr-logo-color" d="M82.43,20.57a15.07,15.07,0,1,1,15,15.12A15,15,0,0,1,82.43,20.57Z" transform="translate(0 0)"/>
      </g>
      <g class="clipPathFiverr">
        <path class="fiverr-logo-color" d="M514.52,34.74a12.82,12.82,0,0,0,8-2.68c7.2-5.46,7.65-16.91.92-23a13.17,13.17,0,0,0-18.88,1.23,15.64,15.64,0,0,0,.12,19.89A12.7,12.7,0,0,0,514.52,34.74Zm20-14.61a20.24,20.24,0,0,1-16.73,20c-7.85,1.3-14.28-1.48-19-7.81a20.49,20.49,0,0,1,4-28.39,19.71,19.71,0,0,1,30.92,11.18C534.16,16.75,534.3,18.45,534.56,20.13Z" transform="translate(0 0)"/>
      </g>
      <g class="clipPathFiverr">
        <path class="fiverr-logo-color" d="M513.43,14.57v4.51c1.17,0,2.36.3,3.13-.83a2.48,2.48,0,0,0,.07-2.74C515.91,14.31,514.68,14.63,513.43,14.57ZM524,29.5H517.5c-.87-2.06-1.75-4.18-2.66-6.34h-1.46v6.32h-6V10.64c.29,0,.53-.1.76-.11,2.83,0,5.67,0,8.5,0a8.27,8.27,0,0,1,2.82.59A5.55,5.55,0,0,1,523,16.38a5.21,5.21,0,0,1-2.63,5.1,3.13,3.13,0,0,0-.3.2.4.4,0,0,0-.09.13C521.29,24.31,522.61,26.83,524,29.5Z" transform="translate(0 0)"/>
      </g>
    </g>
  </g>
</svg>
