<svg id="Layer_1" data-name="Layer 1" xmlns="http://www.w3.org/2000/svg" viewBox="0 0 437.6 105.51">
  <defs>
    <style>
      .freelancer-logo-color {
        fill: #111;
      }
    </style>
  </defs>
  <title>Freelancer-logo</title>
  <g>
    <path class="freelancer-logo-color" d="M120.53,203.25l9.66,13.55,48.89-13.55M69.74,308.75,96.18,282.9,80.26,265.82m36.27-62.57L102.39,216l23.77.89M61.58,203.25l5.07,10.4,28,1.74M76.56,257.2l20.66-38.56-60-3.25M79,259.64l19.53,21L120,259.5l6.69-39.32-26.25-1.34" transform="translate(-37.2 -203.25)"/>
    <path class="freelancer-logo-color" d="M161.84,252.7h-5.35l-4.69,29.59a1.72,1.72,0,0,1-1.63,1.41H139.46a1.17,1.17,0,0,1-1.18-1.41l6.57-41.5c1.66-10.5,7-12.82,14.22-12.82a36.58,36.58,0,0,1,6.46.56c.82.14,1.38.64,1.25,1.41l-1.06,6.7A1.66,1.66,0,0,1,164,238h-3c-1.76,0-2.36.71-2.7,2.82l-.3,1.9h5.36a1.18,1.18,0,0,1,1.18,1.41l-1.14,7.19a1.73,1.73,0,0,1-1.63,1.41Zm26.73.49h-1a18.79,18.79,0,0,0-8.36,1.62l-4.33,27.33a1.81,1.81,0,0,1-1.65,1.55H162.67a1.33,1.33,0,0,1-1.3-1.54l6-38a1.57,1.57,0,0,1,1.64-1.41h10.14c1,0,1.35.36,1.18,1.41l-.26,1.69c3.69-3.31,6.28-3.66,10-3.66,1.19,0,1.36.28,1.18,1.41l-1.36,8.59c-.13.85-.45,1.06-1.36,1.06ZM224,267H202.05l0,.14c-.59,3.73.59,6.06,5.73,6.06,3.74,0,10.7-.35,13.48-.57,1.14-.07,1.52.14,1.35,1.2l-1,6.34a2,2,0,0,1-1.72,2,50.85,50.85,0,0,1-15.63,2.19c-9.51,0-17.52-5-15.39-18.46l.73-4.65c2-12.4,10.22-19.16,21.78-19.16,12.32,0,16.79,7.82,15,19.16l-.67,4.23A1.77,1.77,0,0,1,224,267Zm-10.27-7.68c.68-4.23-.62-6.76-4.14-6.76s-5.61,2.53-6.28,6.76l0,.21h10.42l0-.21ZM263,267H241l0,.14c-.59,3.73.59,6.06,5.74,6.06,3.73,0,10.69-.35,13.47-.57,1.14-.07,1.53.14,1.36,1.2l-1,6.34a2,2,0,0,1-1.72,2,51,51,0,0,1-15.64,2.19c-9.51,0-17.52-5-15.39-18.46l.74-4.65c2-12.4,10.22-19.16,21.77-19.16,12.33,0,16.8,7.82,15,19.16l-.67,4.23A1.77,1.77,0,0,1,263,267Zm-10.27-7.68c.68-4.23-.61-6.76-4.14-6.76-3.38,0-5.61,2.53-6.28,6.76l0,.21h10.42Zm24.57,24.38H266.61a1.38,1.38,0,0,1-1.3-1.55l8.16-51.5a1.87,1.87,0,0,1,1.77-1.41h10.64a1.17,1.17,0,0,1,1.18,1.4l-8.15,51.51a1.89,1.89,0,0,1-1.66,1.54Zm37.44,0H304.9a1.18,1.18,0,0,1-1.19-1.41l.24-1.48a19.87,19.87,0,0,1-10.63,3.52c-5.57,0-11.56-3.1-10.05-12.61l.13-.85c1.34-8.45,8.23-11.48,20-11.48h3l.32-2c.55-3.45-.48-4.09-4-4.09-3.95,0-10.34.35-12.34.5-1.21.07-1.46-.57-1.33-1.41l1.09-6.84c.16-1,.78-1.4,1.67-1.69A60.68,60.68,0,0,1,305,242.13c10.22,0,17.1,3.66,15.28,15.22l-3.95,24.94a1.75,1.75,0,0,1-1.64,1.41Zm-9-17h-3.46c-3.52,0-5.1,1.12-5.57,4.08l-.12.71c-.37,2.39,1.13,3.1,3.11,3.1a13.68,13.68,0,0,0,5-1.06l1.07-6.83Zm49.68,17H344.81a1.34,1.34,0,0,1-1.31-1.55l3.79-23.89c.59-3.73-.42-4.93-3.59-4.93a14,14,0,0,0-5.52,1.48l-4.33,27.34a1.82,1.82,0,0,1-1.65,1.55H321.63a1.33,1.33,0,0,1-1.3-1.55l6-38a1.73,1.73,0,0,1,1.63-1.41h9.79A1.18,1.18,0,0,1,339,244.1l-.26,1.62a20.84,20.84,0,0,1,12.2-3.59c11.05,0,11.24,7.75,9.91,16.13L357,282.15a1.82,1.82,0,0,1-1.66,1.55Zm31.26-.5a42.7,42.7,0,0,1-9.83,1.13c-10.78,0-15.75-6.9-13.92-18.46l.84-5.28c1.82-11.49,9-18.53,19.77-18.53a39.36,39.36,0,0,1,9.48,1.12c.88.22,1.31.57,1.17,1.48l-1.26,8a1.41,1.41,0,0,1-1.69,1.33,77.62,77.62,0,0,0-8-.49c-3,0-5.09,1.9-5.91,7.12l-.84,5.28c-.83,5.21.65,7.05,3.68,7.05a64.46,64.46,0,0,0,8.16-.43c1.08-.14,1.42.43,1.27,1.34l-1.25,7.89c-.14.92-.69,1.27-1.65,1.48ZM428,267H406.06l0,.14c-.59,3.73.59,6.06,5.74,6.06,3.73,0,10.69-.35,13.47-.57,1.14-.07,1.53.14,1.36,1.2l-1,6.34a2,2,0,0,1-1.72,2,50.85,50.85,0,0,1-15.63,2.19c-9.51,0-17.52-5-15.39-18.46l.73-4.65c2-12.4,10.22-19.16,21.78-19.16,12.32,0,16.79,7.82,15,19.16l-.68,4.23A1.77,1.77,0,0,1,428,267Zm-10.27-7.68c.68-4.23-.61-6.76-4.14-6.76s-5.61,2.53-6.28,6.76l0,.21h10.42Zm32.43-16.63-6.28,39.46a1.82,1.82,0,0,1-1.65,1.55H431.63a1.34,1.34,0,0,1-1.3-1.55l4.16-26.1,15.64-13.36Z" transform="translate(-37.2 -203.25)"/>
    <path class="freelancer-logo-color" d="M453.73,242.69l-2.17,13.54,23.24-13.54" transform="translate(-37.2 -203.25)"/>
  </g>
</svg>
