<svg id="Layer_1" data-name="Layer 1" xmlns="http://www.w3.org/2000/svg" viewBox="0 0 49.6 49.6">
  <defs>
    <style>
      .cls-1 {
        fill: #111;
      }
    </style>
  </defs>
  <title>Insta_logo</title>
  <g>
    <path class="cls-1" d="M28.2,16.7A12.8,12.8,0,1,0,41,29.5,12.82,12.82,0,0,0,28.2,16.7Zm0,21a8.2,8.2,0,1,1,8.2-8.2A8.24,8.24,0,0,1,28.2,37.7Z" transform="translate(-3.4 -4.8)"/>
    <circle class="cls-1" cx="38.1" cy="11.6" r="2.9"/>
    <path class="cls-1" d="M49,8.9A14.24,14.24,0,0,0,38.5,4.8H17.9C9.2,4.8,3.4,10.6,3.4,19.3V39.8A14.39,14.39,0,0,0,7.6,50.5,14.59,14.59,0,0,0,18,54.4H38.4a14.77,14.77,0,0,0,10.5-3.9A14.32,14.32,0,0,0,53,39.9V19.3A14.34,14.34,0,0,0,49,8.9Zm-.4,31a9.77,9.77,0,0,1-2.9,7.3,10.34,10.34,0,0,1-7.3,2.6H18a10.34,10.34,0,0,1-7.3-2.6A10.05,10.05,0,0,1,8,39.8V19.3A10,10,0,0,1,10.7,12,10.17,10.17,0,0,1,18,9.4H38.6a10,10,0,0,1,7.3,2.7,10.32,10.32,0,0,1,2.7,7.2V39.9Z" transform="translate(-3.4 -4.8)"/>
  </g>
</svg>
