<svg id="laptopIllustration" xmlns="http://www.w3.org/2000/svg" xmlns:xlink="http://www.w3.org/1999/xlink" width="168.31" height="131.92" viewBox="0 0 168.31 131.92">
  <defs>
    <style>
      .cls-1 {
        fill: #002017;
        stroke: #00fff6;
        stroke-width: 1.14px;
      }

      .cls-2 {
        fill: #002c1f;
      }

      .cls-2, .cls-3, .cls-4, .cls-5, .cls-6, .cls-7 {
        fill-rule: evenodd;
      }

      .cls-3 {
        fill: #00fff6;
      }

      .cls-4 {
        fill: url(#linear-gradient);
      }

      .cls-5 {
        fill: #0dffe8;
      }

      .cls-6 {
        fill: #fff;
      }

      .cls-7 {
        fill: #00ffbf;
      }
    </style>
    <linearGradient id="linear-gradient" x1="1342.405" y1="3306.94" x2="1346.315" y2="3327.06" gradientUnits="userSpaceOnUse">
      <stop offset="0" stop-color="#00ffad"/>
      <stop offset="1" stop-color="#00fff6"/>
    </linearGradient>
  </defs>
  <g id="LaptopIllustration-2" data-name="LaptopIllustration">
    <rect id="Screen" class="cls-1" x="14.34" y="0.57" width="140.85" height="85.72" rx="4" ry="4"/>
    <path id="Middle" class="cls-2" d="M1276.97,3305.19H1411.7a3.8,3.8,0,0,1,3.42,2.18l12.62,34.82c0.62,1.72-.29,3.13-2.05,3.13H1262.2c-1.76,0-2.64-1.41-1.99-3.13l13.3-34.82A3.88,3.88,0,0,1,1276.97,3305.19Z" transform="translate(-1260 -3218.77)"/>
    <path id="Depth" class="cls-3" d="M1260.34,3344.56h167.98l-0.26,3.51a2.857,2.857,0,0,1-2.79,2.61H1263.74a3.057,3.057,0,0,1-2.93-2.61Z" transform="translate(-1260 -3218.77)"/>
    <path id="Buttons" class="cls-4" d="M1288.34,3306.94h111.99a3.493,3.493,0,0,1,3.26,2.43l3.86,14.86a2.123,2.123,0,0,1-2.12,2.83H1283.37a2.126,2.126,0,0,1-2.12-2.83l3.84-14.86A3.481,3.481,0,0,1,1288.34,3306.94Z" transform="translate(-1260 -3218.77)"/>
    <path id="Touchpad" class="cls-5" d="M1326.55,3329.68h36.44a1.311,1.311,0,0,1,1.06,1.17l1.25,7.11a0.991,0.991,0,0,1-.69,1.35h-39.67a1,1,0,0,1-.7-1.35l1.25-7.11A1.311,1.311,0,0,1,1326.55,3329.68Z" transform="translate(-1260 -3218.77)"/>
  </g>
  <path id="_" data-name="&lt;&gt;" class="cls-6" d="M1336.31,3256.3l-15.91,6.47v1.8l15.91,6.48v-1.72l-14.11-5.66,14.11-5.65v-1.72Zm17.38,0v1.72l14.11,5.65-14.11,5.66v1.72l15.91-6.48v-1.8Z" transform="translate(-1260 -3218.77)"/>
  <path id="_2" data-name="/" class="cls-7" d="M1338.15,3280.52h1.72l12.36-35.27h-1.73Z" transform="translate(-1260 -3218.77)"/>
</svg>
