<svg id="meteorsFalling" xmlns="http://www.w3.org/2000/svg" xmlns:xlink="http://www.w3.org/1999/xlink" width="558.85" height="596.66" viewBox="0 0 558.85 596.66">
  <defs>
    <style>
      .cls-1 {
        opacity: 0.9;
      }

      .cls-10, .cls-13, .cls-14, .cls-2, .cls-3, .cls-4, .cls-5, .cls-7, .cls-8, .cls-9 {
        fill-rule: evenodd;
      }

      .cls-2 {
        fill: url(#linear-gradient);
      }

      .cls-3 {
        fill: url(#linear-gradient-2);
      }

      .cls-4 {
        fill: #befff1;
      }

      .cls-11, .cls-5 {
        fill: #fff;
      }

      .cls-6 {
        opacity: 0.8;
      }

      .cls-7 {
        fill: url(#linear-gradient-3);
      }

      .cls-8 {
        fill: url(#linear-gradient-4);
      }

      .cls-9 {
        fill: url(#linear-gradient-5);
      }

      .cls-10 {
        fill: url(#linear-gradient-6);
      }

      .cls-12 {
        opacity: 0.7;
      }

      .cls-13 {
        fill: url(#linear-gradient-7);
      }

      .cls-14 {
        fill: url(#linear-gradient-8);
      }
    </style>
    <linearGradient id="linear-gradient" x1="1363.03" y1="4707.285" x2="1712.63" y2="4357.685" gradientUnits="userSpaceOnUse">
      <stop offset="0.085" stop-color="#00ffe7"/>
      <stop offset="0.891" stop-color="#fff"/>
      <stop offset="0.915" stop-color="#fff" stop-opacity="0"/>
    </linearGradient>
    <linearGradient id="linear-gradient-2" x1="1374.92" y1="4702.63" x2="1494.58" y2="4582.97" gradientUnits="userSpaceOnUse">
      <stop offset="-0.185" stop-color="#00c5b1"/>
      <stop offset="1.185" stop-color="#5a00ff"/>
    </linearGradient>
    <linearGradient id="linear-gradient-3" x1="1359.63" y1="4809.3" x2="1581.38" y2="4587.55" xlink:href="#linear-gradient"/>
    <linearGradient id="linear-gradient-4" x1="1367.175" y1="4806.31" x2="1443.045" y2="4730.44" xlink:href="#linear-gradient-2"/>
    <linearGradient id="linear-gradient-5" x1="1153.81" y1="4774.505" x2="1712.66" y2="4215.655" xlink:href="#linear-gradient"/>
    <linearGradient id="linear-gradient-6" x1="1172.815" y1="4767" x2="1364.095" y2="4575.72" xlink:href="#linear-gradient-2"/>
    <linearGradient id="linear-gradient-7" x1="1176.78" y1="4626.985" x2="1308.19" y2="4495.575" xlink:href="#linear-gradient"/>
    <linearGradient id="linear-gradient-8" x1="1181.235" y1="4625.25" x2="1226.235" y2="4580.25" xlink:href="#linear-gradient-2"/>
  </defs>
  <g id="meteorsFalling-2" data-name="meteorsFalling" class="cls-1">
    <path id="TrailFading1" class="cls-2" d="M1371.15,4657.07l149.33-149.58c79.1-79.14,129.54-130.66,159.97-146.12,27.53-13.98,39.42,3.19,27.71,26.51-16.22,32.31-79.46,95.94-145.35,161.87L1414.65,4700.5c-11.3,11.32-30.2,10.78-42.21-1.21S1359.85,4668.39,1371.15,4657.07Z" transform="translate(-1153.81 -4213.5)"/>
    <path id="Trail2" class="cls-3" d="M1500.45,4587.07c-0.52.82-15.81,16.74-15.81,16.74a2.11,2.11,0,0,1-3.27.13c-1.72-1.77-2.1-2.52-1.02-3.72l16.33-16.86s1.06-1.22,2.9.52S1500.97,4586.24,1500.45,4587.07Zm-62.77,64.65s-1.84,1.75.49,3.82c0.45,0.26,1.77.93,4.03-1.39s8.17-8.43,8.17-8.43a2.643,2.643,0,0,1,3.79-.23,2.882,2.882,0,0,1,.5,3.82c-1,1.42-47.49,48.02-47.49,48.02h-0.05a20.754,20.754,0,0,1-9.65,4.82c-12.11,2.52-24.65-5.42-28.03-17.73a21.456,21.456,0,0,1,7.03-22.73l60.56-62.56a1.873,1.873,0,0,1,2.76-.01c1.48,1.4.73,2.65,0.73,2.65l-18.88,19.63s-2.18,2.09-.55,4.04a3.561,3.561,0,0,0,4.09.84l31.76-32.97a1.85,1.85,0,0,1,2.76-.01,2.569,2.569,0,0,1,.35,3.29l-26.29,26.78s-2.09,2.14.64,4.35,4.7-.97,4.7-0.97l19.4-19.74s1.77-1.5,3.04,1.05a3.453,3.453,0,0,1,.44,1.59s0.13,0.8-1.51,2.56-13.4,13.44-13.4,13.44-1.64,1.36,1.02,3.71,4.46,0.2,4.46.2l19.63-20.91s1.75-1.87,3.28-.12,1.08,2.67.87,3.18S1437.68,4651.72,1437.68,4651.72Zm8.6-55.07s-1.1,1.57-3.28.12c0,0-1.68-1.73-1.25-2.55s8.02-8.95,8.02-8.95a2.239,2.239,0,0,1,3.28-.12c1.87,1.55,1.26,2.77.5,3.82S1446.28,4596.65,1446.28,4596.65Z" transform="translate(-1153.81 -4213.5)"/>
    <path id="Trail1" class="cls-4" d="M1433.38,4648.13l-21.95,22.51s-2,2.68.64,4.35,3.66-.76,3.66-0.76l9.96-9.92a2.179,2.179,0,0,1,3.27-.12,2.688,2.688,0,0,1,.5,3.82c-0.47.63-22.99,22.73-22.99,22.73l-4.53-2.42s-15.81-5.17-20.23-25.52l21.95-22.51s1.25-.96,3.42.41c0.29,0.19,1.68,1.59-.55,4.04s-9.81,10.45-9.81,10.45-0.36,2.22,1.39,3.08,3.51-1.29,3.51-1.29l24.12-24.65a3.08,3.08,0,0,1,3.27-.12,2.973,2.973,0,0,1,.65,4.35c-0.96,1.16-14.54,15.37-14.54,15.37s-2.12,2.6-.02,3.93,2.76,0.79,3.79-.23,11.24-11.31,11.24-11.31,1.28-.95,3.42.41S1433.38,4648.13,1433.38,4648.13Zm-20.48-10.33a2.545,2.545,0,0,1-2.9-.51,3.328,3.328,0,0,1-1.25-2.55l4.58-5.44a2.881,2.881,0,0,1,3.42.41c1.49,1.54,1.11,3.2.49,3.83S1412.9,4637.8,1412.9,4637.8Z" transform="translate(-1153.81 -4213.5)"/>
    <path id="Meteor" class="cls-5" d="M1385.47,4661.46c9.94-2.07,20.25,4.45,23.03,14.56s-3.04,19.98-12.98,22.05-20.25-4.46-23.02-14.57S1375.53,4663.52,1385.47,4661.46Z" transform="translate(-1153.81 -4213.5)"/>
  </g>
  <g id="meteorsFalling_copy_3" data-name="meteorsFalling copy 3" class="cls-6">
    <path id="TrailFading1-2" data-name="TrailFading1" class="cls-7" d="M1364.77,4777.44l94.72-94.89c50.17-50.19,82.17-82.87,101.47-92.67,17.46-8.87,25,2.02,17.58,16.81-10.3,20.49-50.41,60.85-92.2,102.67l-93.98,95.63c-7.17,7.18-19.16,6.83-26.78-.78S1357.6,4784.62,1364.77,4777.44Z" transform="translate(-1153.81 -4213.5)"/>
    <path id="Trail2-2" data-name="Trail2" class="cls-8" d="M1446.78,4733.03c-0.33.53-10.02,10.63-10.02,10.63a1.345,1.345,0,0,1-2.08.07c-1.09-1.12-1.33-1.59-.65-2.35l10.36-10.7s0.68-.77,1.84.33S1447.12,4732.51,1446.78,4733.03Zm-39.81,41.01a1.565,1.565,0,0,0,.31,2.43c0.29,0.16,1.12.58,2.56-.89s5.18-5.34,5.18-5.34a1.667,1.667,0,0,1,2.4-.15,1.821,1.821,0,0,1,.32,2.42c-0.64.91-30.12,30.46-30.12,30.46h-0.03a13.18,13.18,0,0,1-6.13,3.06c-7.67,1.6-15.63-3.44-17.78-11.24a13.64,13.64,0,0,1,4.46-14.43l38.42-39.67a1.187,1.187,0,0,1,1.75-.01,1.371,1.371,0,0,1,.46,1.68l-11.98,12.45s-1.38,1.33-.34,2.57a2.245,2.245,0,0,0,2.59.52l20.15-20.91a1.161,1.161,0,0,1,1.74,0,1.623,1.623,0,0,1,.23,2.08l-16.68,16.99a1.772,1.772,0,0,0,.41,2.76c1.73,1.41,2.98-.62,2.98-0.62l12.3-12.52s1.12-.95,1.93.67a2.172,2.172,0,0,1,.28,1.01s0.08,0.5-.95,1.62-8.51,8.53-8.51,8.53-1.04.86,0.65,2.35,2.83,0.13,2.83.13l12.45-13.27a1.381,1.381,0,0,1,2.08-.07c0.97,1.11.69,1.69,0.56,2.02S1406.97,4774.04,1406.97,4774.04Zm5.45-34.93s-0.69,1-2.08.08c0,0-1.06-1.1-.79-1.62s5.09-5.68,5.09-5.68a1.426,1.426,0,0,1,2.08-.08,1.516,1.516,0,0,1,.31,2.43C1416.55,4734.91,1412.42,4739.11,1412.42,4739.11Z" transform="translate(-1153.81 -4213.5)"/>
    <path id="Trail1-2" data-name="Trail1" class="cls-4" d="M1404.24,4771.76l-13.92,14.28a1.872,1.872,0,0,0,.41,2.77c1.68,1.06,2.31-.49,2.31-0.49l6.32-6.29a1.393,1.393,0,0,1,2.08-.08,1.72,1.72,0,0,1,.32,2.43c-0.3.39-14.59,14.41-14.59,14.41l-2.87-1.53s-10.03-3.28-12.84-16.19l13.93-14.28s0.79-.61,2.17.26c0.19,0.12,1.06,1.01-.35,2.56s-6.23,6.64-6.23,6.64a1.919,1.919,0,0,0,.89,1.95c1.11,0.54,2.22-.82,2.22-0.82l15.3-15.64a1.967,1.967,0,0,1,2.08-.07,1.884,1.884,0,0,1,.41,2.76c-0.61.74-9.22,9.74-9.22,9.74s-1.35,1.65-.02,2.5,1.76,0.5,2.41-.15,7.13-7.17,7.13-7.17a1.937,1.937,0,0,1,2.17.26C1405.71,4770.47,1404.24,4771.76,1404.24,4771.76Zm-12.99-6.54a1.617,1.617,0,0,1-1.84-.33,2.118,2.118,0,0,1-.79-1.62l2.9-3.45a1.83,1.83,0,0,1,2.17.26,1.782,1.782,0,0,1,.32,2.43C1393.62,4762.9,1391.25,4765.22,1391.25,4765.22Z" transform="translate(-1153.81 -4213.5)"/>
    <path id="Meteor-2" data-name="Meteor" class="cls-5" d="M1373.85,4780.22a12.791,12.791,0,0,1,14.61,9.24,10.988,10.988,0,0,1-8.23,13.98,12.791,12.791,0,0,1-14.61-9.24A10.988,10.988,0,0,1,1373.85,4780.22Z" transform="translate(-1153.81 -4213.5)"/>
  </g>
  <g id="meteorsFalling_copy" data-name="meteorsFalling copy">
    <path id="TrailFading1-3" data-name="TrailFading1" class="cls-9" d="M1166.79,4694.2l238.7-239.1c126.42-126.5,207.06-208.85,255.7-233.55,44-22.35,63.01,5.09,44.29,42.37-25.93,51.65-127.02,153.35-232.33,258.73l-236.82,240.97c-18.07,18.09-48.28,17.22-67.48-1.95S1148.73,4712.3,1166.79,4694.2Z" transform="translate(-1153.81 -4213.5)"/>
    <path id="Trail2-3" data-name="Trail2" class="cls-10" d="M1373.47,4582.3c-0.84,1.32-25.27,26.77-25.27,26.77s-2.49,3.01-5.24.19-3.35-4.02-1.62-5.93l26.1-26.95s1.7-1.95,4.63.83S1374.31,4580.98,1373.47,4582.3Zm-100.34,103.35s-2.94,2.8.79,6.11c0.72,0.41,2.82,1.47,6.44-2.24s13.05-13.47,13.05-13.47,2.37-3,6.07-.37c1.34,0.83,2.4,3.84.8,6.11-1.47,2.09-64.09,64.9-74.45,75.29-0.13.13-.26,0.27-0.4,0.4l-1.06,1.06a0.453,0.453,0,0,0-.08.01,33.248,33.248,0,0,1-15.43,7.7c-19.35,4.02-39.4-8.66-44.8-28.34-3.93-14.31.99-28.37,11.41-36.52l96.63-99.8a2.972,2.972,0,0,1,4.4-.02c2.37,2.23,1.17,4.24,1.17,4.24l-30.18,31.38s-3.47,3.33-.87,6.45,6.53,1.34,6.53,1.34l50.78-52.7s1.86-2.21,4.4-.02,0.56,5.26.56,5.26l-42.02,42.81s-3.35,3.41,1.02,6.96,7.51-1.56,7.51-1.56l31.01-31.55s2.83-2.4,4.87,1.67a5.584,5.584,0,0,1,.69,2.55s0.21,1.27-2.4,4.08-21.43,21.49-21.43,21.49-2.62,2.18,1.63,5.94,7.13,0.31,7.13.31l31.38-33.42s2.8-2.99,5.24-.19,1.73,4.26,1.4,5.09S1273.13,4685.65,1273.13,4685.65Zm13.75-88.03s-1.75,2.51-5.24.19c0,0-2.68-2.76-1.99-4.07s12.82-14.32,12.82-14.32a3.566,3.566,0,0,1,5.23-.19c3,2.49,2.02,4.43.8,6.11S1286.88,4597.62,1286.88,4597.62Z" transform="translate(-1153.81 -4213.5)"/>
    <path id="Trail1-3" data-name="Trail1" class="cls-4" d="M1266.26,4679.9l-35.08,35.99s-3.2,4.28,1.03,6.95,5.84-1.21,5.84-1.21l15.92-15.86s2.47-2.86,5.23-.19,1.55,5.1.8,6.11-36.75,36.33-36.75,36.33l-7.24-3.88s-25.28-8.26-32.34-40.78l35.08-35.99s2.01-1.53,5.47.66c0.47,0.3,2.69,2.54-.87,6.45s-15.69,16.71-15.69,16.71-0.57,3.55,2.23,4.92,5.6-2.06,5.6-2.06l38.56-39.4a4.934,4.934,0,0,1,5.23-.19,4.752,4.752,0,0,1,1.03,6.96c-1.54,1.85-23.23,24.55-23.23,24.55s-3.4,4.16-.04,6.29,4.41,1.27,6.07-.37,17.96-18.08,17.96-18.08,2.04-1.51,5.47.66S1266.26,4679.9,1266.26,4679.9Zm-32.73-16.5a4.075,4.075,0,0,1-4.64-.83c-2.23-2.12-1.99-4.06-1.99-4.06l7.31-8.7s3.09-1.8,5.47.66,1.78,5.11.79,6.11S1233.53,4663.4,1233.53,4663.4Z" transform="translate(-1153.81 -4213.5)"/>
    <circle id="Meteor-3" data-name="Meteor" class="cls-11" cx="43.905" cy="516.97" r="29.875"/>
  </g>
  <g id="meteorsFalling_copy_2" data-name="meteorsFalling copy 2" class="cls-12">
    <path id="TrailFading1-4" data-name="TrailFading1" class="cls-13" d="M1179.84,4608.11l56.12-56.22c29.73-29.74,48.69-49.11,60.13-54.92,10.34-5.25,14.81,1.2,10.41,9.97-6.1,12.14-29.87,36.05-54.63,60.83l-55.68,56.66c-4.25,4.26-11.36,4.05-15.87-.45S1175.59,4612.37,1179.84,4608.11Z" transform="translate(-1153.81 -4213.5)"/>
    <path id="Trail2-4" data-name="Trail2" class="cls-14" d="M1228.43,4581.8c-0.19.31-5.94,6.29-5.94,6.29a0.794,0.794,0,0,1-1.23.05c-0.65-.66-0.79-0.95-0.38-1.4l6.14-6.33s0.4-.46,1.08.19S1228.63,4581.49,1228.43,4581.8Zm-23.59,24.3a0.927,0.927,0,0,0,.19,1.44c0.16,0.09.66,0.34,1.51-.53s3.07-3.17,3.07-3.17a1,1,0,0,1,1.43-.08,1.077,1.077,0,0,1,.18,1.43c-0.37.54-17.84,18.05-17.84,18.05h-0.02a7.8,7.8,0,0,1-3.63,1.81,9.222,9.222,0,0,1-10.54-6.66,8.105,8.105,0,0,1,2.64-8.55l22.77-23.51a0.7,0.7,0,0,1,1.03,0,0.814,0.814,0,0,1,.28,1l-7.1,7.38a1.139,1.139,0,0,0-.2,1.51,1.326,1.326,0,0,0,1.53.32l11.94-12.39a0.7,0.7,0,0,1,1.04-.01,0.979,0.979,0,0,1,.13,1.24l-9.88,10.06a1.056,1.056,0,0,0,.24,1.64,1.16,1.16,0,0,0,1.76-.37l7.29-7.42s0.67-.56,1.15.4a1.359,1.359,0,0,1,.16.6,1.45,1.45,0,0,1-.56.96c-0.62.66-5.04,5.05-5.04,5.05s-0.62.51,0.38,1.4a1.112,1.112,0,0,0,1.68.07l7.38-7.86a0.815,0.815,0,0,1,1.23-.04,0.99,0.99,0,0,1,.33,1.19C1219.29,4591.26,1204.84,4606.1,1204.84,4606.1Zm3.23-20.7a0.836,0.836,0,0,1-1.23.05,1.386,1.386,0,0,1-.47-0.96c0.16-.31,3.02-3.37,3.02-3.37a0.834,0.834,0,0,1,1.23-.04,0.891,0.891,0,0,1,.18,1.43C1210.52,4582.91,1208.07,4585.4,1208.07,4585.4Z" transform="translate(-1153.81 -4213.5)"/>
    <path id="Trail1-4" data-name="Trail1" class="cls-4" d="M1203.23,4604.75l-8.25,8.46a1.1,1.1,0,0,0,.24,1.64,0.85,0.85,0,0,0,1.37-.29l3.74-3.73a0.831,0.831,0,0,1,1.24-.04,1.007,1.007,0,0,1,.18,1.43c-0.17.24-8.64,8.55-8.64,8.55l-1.7-.92s-5.94-1.94-7.61-9.59l8.25-8.46a1.139,1.139,0,0,1,1.29.16c0.11,0.07.63,0.59-.21,1.51s-3.69,3.93-3.69,3.93a1.139,1.139,0,0,0,.53,1.16,1.27,1.27,0,0,0,1.32-.49l9.06-9.26a1.168,1.168,0,0,1,1.23-.04,1.111,1.111,0,0,1,.25,1.63c-0.37.44-5.47,5.78-5.47,5.78s-0.8.97-.01,1.47a0.912,0.912,0,0,0,1.43-.08c0.39-.39,4.22-4.25,4.22-4.25a1.147,1.147,0,0,1,1.29.15C1204.1,4603.98,1203.23,4604.75,1203.23,4604.75Zm-7.7-3.88a0.96,0.96,0,0,1-1.09-.2,1.208,1.208,0,0,1-.47-0.95l1.72-2.05a1.071,1.071,0,0,1,1.28.16,1.042,1.042,0,0,1,.19,1.43C1196.93,4599.5,1195.53,4600.87,1195.53,4600.87Z" transform="translate(-1153.81 -4213.5)"/>
    <circle id="Meteor-4" data-name="Meteor" class="cls-11" cx="33.3" cy="403.145" r="7.05"/>
  </g>
</svg>
