<svg id="myIllustrationCircularAbout" xmlns="http://www.w3.org/2000/svg" viewBox="0 0 233.38 233.71">
  <defs>
    <style>
      .myIllustrationBackgroundAbout {
        fill: #111;
      }

      .myIllustrationInnerwearAbout {
        fill: #180033;
      }

      .myIllustrationInnerwearAbout, .myIllustrationHoodieAbout, .myIllustrationNeckAbout, .myIllustrationSkinAbout, .myIllustrationHairAbout {
        fill-rule: evenodd;
      }

      .myIllustrationHoodieAbout {
        fill: #00ffe7;
      }

      .myIllustrationNeckAbout {
        fill: #baa0ad;
      }

      .myIllustrationSkinAbout {
        fill: #f6dae8;
      }

      .myIllustrationHairAbout {
        fill: #1b1b1b;
      }
    </style>
  </defs>
  <title>myIllustrationCircularAbout</title>
  <g id="Layer_2" data-name="Layer 2">
    <circle class="myIllustrationBackgroundAbout" cx="116.69" cy="116.69" r="116.69"/>
  </g>
  <path id="innerwear" class="myIllustrationInnerwear" d="M180.14,308.3A116.07,116.07,0,0,1,131,297.55c.05-1.26,1-5.27.89-6.71a106.16,106.16,0,0,1,.46-22.54,2.5,2.5,0,0,0,2.37-2.63,1.23,1.23,0,0,0,0-.19c1-3.62,1.47-12.33,1.88-14.56.13-2.68,4.17-12,4.7-14.08,1.27-1.15,2.81-6.57,2.81-6.57a10.21,10.21,0,0,1-.94-3.76c.06-6,6.1-8.45,6.1-8.45l.94,4.69s-.15-.15,5.17,5.64,15.85,9.14,19.25,9.39c18.57,5.27,32.4-12.68,32.4-12.68l3.29-8s2.27-4.07,1.87-2.82,1.41,4.23,1.41,4.23a9.22,9.22,0,0,1,2.35,3.75,6.43,6.43,0,0,1-1.88,6.58s0,1.45,0,1.87c2.1,1,6.06,6.1,10.8,11.27s5.66,6.31,6.1,10.8,6.26,23.12,5.64,29.58c-.23,2.42,1.06,7.1,1.63,9.61A114.68,114.68,0,0,1,180.14,308.3Z" transform="translate(-62.57 -74.59)"/>
  <path id="Hoodie" class="myIllustrationHoodieAbout" d="M85.43,260.67c2.08-1.88,7.76-5.71,7.76-5.71a38.47,38.47,0,0,0-1.88-5.64c-1.14-2.55-.39-5.95,0-7s7.6-.62,9.39.47,8,.87,12.68,1.41c5,2.32,4.35,3.8,5.63,4.22s2.7-1.4,3.76-2.35c4-4.16,7-2.34,7-2.34s.85,1.16,1.41.47c6-6.54,10.12-7.69,10.12-7.69-.84,1.51-1.2,7.22-1.2,7.22s-.61,6.43-1.88,9.86-2.6,23.41-1.88,26.29.47,16.9.47,16.9l-.17,3.22C117.63,292.58,97.09,277.72,85.43,260.67Zm149.92,33c0,.08.11-3.46.11-3.46V279.84l-3.76-12.68s-1.47-12-2.82-15-3.33-6.71-6.1-8.92-4.17-8.33-4.17-8.33a14,14,0,0,1,6,1.28c1.63.83,13.15,8,13.15,8s5.82.33,6.57.47c2.41,2.65,4.7,1.4,4.7,1.4s2.83-.67,4.23,0,2.35,3.29,2.35,3.29a76.09,76.09,0,0,1,6.57,8c2.08,2.62,5.9,4.34,8.61,6.3A117.21,117.21,0,0,1,235.35,293.63Z" transform="translate(-62.57 -74.59)"/>
  <path id="Neck" class="myIllustrationNeckAbout" d="M148.75,215.53s-.84,5.65.94,8.45,11.05,13.86,28.17,16.44c3.93.4,17.63-.7,27.24-11.27,1.68-2.16,5.94-7.8,5.63-10.8s-1.41-1.88-1.41-1.88Z" transform="translate(-62.57 -74.59)"/>
  <path id="Ear_Left" data-name="Ear Left" class="myIllustrationSkinAbout" d="M137.06,167.16s-3.17-4-4.7-.94-.47,7-.47,7l4.23,17.37s2.77,5.57,8,3.29c.88-2.49,0-16.9,0-16.9Z" transform="translate(-62.57 -74.59)"/>
  <path id="Ear_Right" data-name="Ear Right" class="myIllustrationSkinAbout" d="M223.24,167.16s3.17-4,4.7-.94.47,7,.47,7l-4.23,17.37s-2.77,5.57-8,3.29c-.88-2.49,0-16.9,0-16.9Z" transform="translate(-62.57 -74.59)"/>
  <path id="Face" class="myIllustrationSkinAbout" d="M139.49,178s1.38,18.07,1.87,21.6,2.22,12.75,8,17.37,15,11.27,15,11.27,7.51,4.69,15.5,4.69A29.71,29.71,0,0,0,193,230.09l14.08-9.86s7.29-5.36,8.92-10.8a48.86,48.86,0,0,0,2.35-12.68c.5-5.57.94-16,.94-16l1.88-9.39.47-24.41-31.93-8L170,134.77l-17.84-8-14.56,15.49-.94,22.07Z" transform="translate(-62.57 -74.59)"/>
  <path id="Hair" class="myIllustrationHairAbout" d="M133.26,169.53l-1.88-.94a2,2,0,0,0,.5-2.77l0,0c-1-1.87-1.52-2.24-1.41-6.57-.73-.74-.38-2.3-.47-4.7s-.47-6.39.47-8.45c.78-1.39,1.31-2.17,0-3.29a8.49,8.49,0,0,0-2.35-1.41s3.7-.41,2.35-1.4a18.8,18.8,0,0,1-2.82-2.82s1-.6.94-2.82a4.26,4.26,0,0,1,1.88,0l-2.35-3.75s3.25,1.12,3.29-2.35a12.61,12.61,0,0,0-.94-4.23l3.76-4.69s-.53,7.09.94,5.63,2.52-2.67,2.34-4.23c.9-.73,6.58-6.57,6.58-6.57s6.07-2.17,8.45-5.63c1.87-2.25,4.11-4.45,9.39-6.58a9.55,9.55,0,0,0,3.29-.94s4-1.73,5.63-2.34,7.54-.63,11.27.47c2,.84,4.44,1.71,6.57,1.41,1.88.35,4.7.93,4.7.93s6.42,1,8.45,3.29a5.68,5.68,0,0,0,5.64,2.82c2.15,1,6.1,5.16,6.1,5.16a19.84,19.84,0,0,1,4.22,0c.94.3,1.11,2.91,3.76,3.76a20.29,20.29,0,0,0,3.76.94l.47,2.81,6.1,3.76.94,2.35s1.5,1.4,2.81.94a2,2,0,0,1,1.88,0s-1.75-.56-1.88.94-1.2-.46-2.81.47-1.41,1.88-1.41,1.88l.94,2.34L230,136.66s.8,2.58-.47,7a37.94,37.94,0,0,0,0,6.57s-1.94,3.78-1.41,6.11a14.59,14.59,0,0,1,.47,2.35c.06-.57-.28,7-.94,9.39,0,1.14-1,2-1.41,3.75-.28,1.13-2.82,1.88-2.82,1.88s-3.18,8.54-3.75,8.92-.26-19.51-1.41-23c.5-1.62,2.2-4,1.41-5.64s-5.35-.65-8.45-1.88,0,2.35,0,2.35-12-3-16-4.69a58,58,0,0,1-5.16-4.23,14.67,14.67,0,0,0,3.28,6.1c-2.93-.16-13.25.26-18.78-5.63s-15.18-15.35-20.19-12.68-10.29,4.67-14.08,15a11.77,11.77,0,0,0,.47,6.57l-.94,26.3s-1.19-2.13-3.29-5.17-2.64-4.12-2.82-4.7S133.26,169.53,133.26,169.53Z" transform="translate(-62.57 -74.59)"/>
</svg>
