<svg id="myIllustrationCircular" xmlns="http://www.w3.org/2000/svg" width="691" height="690.97" viewBox="0 0 691 690.97">
  <defs>
    <style>
      .myIllustrationBackground {
        fill: #fff;
      }

      .myIllustrationInnerwear {
        fill: #180033;
      }

      .myIllustrationInnerwear, .myIllustrationHoodie, .myIllustrationNeck, .myIllustrationSkin, .myIllustrationHair, .myIllustrationStroke {
        fill-rule: evenodd;
      }

      .myIllustrationHoodie {
        fill: #4600c4;
      }

      .myIllustrationNeck {
        fill: #c7acba;
      }

      .myIllustrationSkin {
        fill: #f6dae8;
      }

      .myIllustrationHair {
        fill: #2c2c2c;
      }

      .myIllustrationStroke {
        fill: none;
        stroke: #d0d0d0;
        stroke-width: 2px;
      }
    </style>
  </defs>
  <circle id="Background" class="myIllustrationBackground" cx="345.5" cy="345.5" r="343.5"/>
  <path id="innerwear" class="myIllustrationInnerwear" d="M488.165,1478.4c-51.687,0-103.324-11.15-146.781-31.82,0.136-3.77,2.908-16.01,2.635-20.34-3.354-34.84,1.4-67.3,1.4-67.3s7.254-.23,7.012-8.41c2.943-10.82,4.378-36.82,5.609-43.47,0.4-8.03,12.444-35.87,14.021-42.06,3.793-3.44,8.413-19.64,8.413-19.64a29.257,29.257,0,0,1-2.8-11.21c0.153-18.05,18.229-25.24,18.229-25.24l2.8,14.02s-0.444-.46,15.424,16.83,47.342,27.29,57.488,28.04c55.454,15.73,96.75-37.86,96.75-37.86l9.815-23.84s6.787-12.13,5.609-8.41S588,1210.31,588,1210.31a28.04,28.04,0,0,1,7.011,11.22,19.206,19.206,0,0,1-5.609,19.63s-0.046,4.33,0,5.61c6.257,3.1,18.093,18.2,32.25,33.65s16.884,18.83,18.228,32.25,18.686,69.04,16.826,88.33c-0.694,7.2,3.173,21.2,4.873,28.69C611.729,1459.54,550.491,1478.4,488.165,1478.4Z" transform="translate(-140 -789)"/>
  <path id="Hoodie" class="myIllustrationHoodie" d="M207.278,1336.08c6.213-5.63,21.763-16,21.763-16a111.623,111.623,0,0,0-5.608-16.83c-3.407-7.6-1.166-17.78,0-21.03s22.706-1.83,28.043,1.41,23.868,2.6,37.858,4.2c15.008,6.94,12.984,11.37,16.827,12.62s8.052-4.19,11.217-7.01c11.8-12.43,21.032-7.01,21.032-7.01s2.529,3.48,4.207,1.4c17.973-19.51,30.211-22.95,30.211-22.95-2.507,4.5-3.57,21.55-3.57,21.55s-1.819,19.21-5.609,29.44-7.745,69.93-5.608,78.53,1.4,50.48,1.4,50.48l-0.523,9.49C300.03,1429.42,243,1388.22,207.278,1336.08Zm446.479,98.56c0.023,0.25.139-9.4,0.139-9.4V1394.4l-11.217-37.86s-4.395-35.87-8.412-44.87-9.96-20.03-18.229-26.64-12.47-24.87-12.47-24.87a41.737,41.737,0,0,1,18.079,3.84c4.866,2.46,39.261,23.83,39.261,23.83s17.372,1.01,19.629,1.4c7.2,7.92,14.023,4.21,14.023,4.21s8.448-2.02,12.619,0,7.01,9.81,7.01,9.81,7.957,7.95,19.631,23.84c5.941,8.09,15.784,16.4,21.574,20.56C728.546,1382.68,692.254,1412.59,653.757,1434.64Z" transform="translate(-140 -789)"/>
  <path id="Neck" class="myIllustrationNeck" d="M394.973,1202.35s-2.507,16.87,2.8,25.24,33,41.37,84.13,49.07c11.726,1.2,52.623-2.07,81.325-33.65,5.017-6.43,17.736-23.28,16.826-32.25s-4.206-5.61-4.206-5.61Z" transform="translate(-140 -789)"/>
  <path id="Ear_Left" data-name="Ear Left" class="myIllustrationSkin" d="M360.056,1057.89s-9.469-11.95-14.021-2.8-1.4,21.03-1.4,21.03L357.253,1128s8.281,16.61,23.836,9.82c2.626-7.44,0-50.48,0-50.48Z" transform="translate(-140 -789)"/>
  <path id="Ear_Right" data-name="Ear Right" class="myIllustrationSkin" d="M617.408,1057.89s9.47-11.95,14.022-2.8,1.4,21.03,1.4,21.03L620.212,1128s-8.281,16.61-23.837,9.82c-2.626-7.44,0-50.48,0-50.48Z" transform="translate(-140 -789)"/>
  <path id="Face" class="myIllustrationSkin" d="M367.3,1090.18s4.128,53.98,5.608,64.49,6.629,38.09,23.837,51.88,44.869,33.66,44.869,33.66,22.436,14.02,46.271,14.02,39.261-8.41,39.261-8.41l42.064-29.45s21.754-15.99,26.641-32.25,5.521-21.22,7.012-37.86,2.8-47.67,2.8-47.67l5.608-28.05,1.4-72.908L517.331,973.8,458.44,961.179l-53.283-23.841L361.691,983.61l-2.8,65.9Z" transform="translate(-140 -789)"/>
  <path id="Hair" class="myIllustrationHair" d="M348.7,1064.97l-5.609-2.81s4.541-2.83,1.4-8.41-4.525-6.7-4.207-19.63c-2.18-2.19-1.124-6.86-1.4-14.02s-1.415-19.09,1.4-25.24c2.316-4.158,3.9-6.48,0-9.813-1.02-1.667-7.01-4.209-7.01-4.209s11.065-1.244,7.01-4.207a55.263,55.263,0,0,1-8.413-8.413s3.07-1.795,2.8-8.413a12.2,12.2,0,0,1,5.609,0l-7.01-11.214s9.695,3.371,9.815-7.013c0.119-5.678-2.805-12.619-2.805-12.619l11.218-14.022s-1.57,21.186,2.8,16.827,7.524-7.984,7.01-12.62c2.672-2.207,19.631-19.633,19.631-19.633s18.139-6.475,25.238-16.821c5.583-6.71,12.28-13.291,28.045-19.633,4.386-.121,9.814-2.808,9.814-2.808s11.929-5.171,16.826-7.009,22.514-1.881,33.651,1.4c6.134,2.527,13.258,5.132,19.631,4.209,5.616,1.047,14.022,2.8,14.022,2.8s19.16,2.941,25.239,9.815c1.333,3.242,7.194,9.115,16.826,8.412,6.421,3.066,18.228,15.429,18.228,15.429s9.827-.9,12.62,0,3.31,8.689,11.217,11.214,11.217,2.805,11.217,2.805l1.4,8.409,18.228,11.22,2.805,7.011s4.465,4.2,8.412,2.8,5.609,0,5.609,0-5.229-1.653-5.609,2.8-3.6-1.375-8.412,1.4-4.207,5.613-4.207,5.613l2.8,7.009-7.012,11.219s2.389,7.7-1.4,21.031c-0.989,8.391,0,19.63,0,19.63s-5.775,11.27-4.206,18.23,1.4,7.01,1.4,7.01c0.167-1.7-.831,21.03-2.8,28.04-0.165,3.41-2.907,6.03-4.206,11.22-0.845,3.36-8.414,5.61-8.414,5.61s-9.508,25.51-11.217,26.64-0.769-58.27-4.207-68.71c1.508-4.83,6.577-12.01,4.207-16.82s-15.964-1.95-25.239-5.61,0,7.01,0,7.01-35.711-8.98-47.673-14.02a181.527,181.527,0,0,1-15.424-12.622,43.88,43.88,0,0,0,9.815,18.232c-8.756-.51-39.593.76-56.087-16.83S426.749,949.017,411.8,957s-30.725,13.93-42.065,44.868c-2.528,9.85,1.4,19.63,1.4,19.63l-2.8,78.52s-3.55-6.36-9.814-15.42-7.892-12.3-8.414-14.02S348.7,1064.97,348.7,1064.97Z" transform="translate(-140 -789)"/>
  <path id="Stroke" class="myIllustrationStroke" d="M485.5,789.984c190.253,0,344.484,154.231,344.484,344.486S675.753,1478.95,485.5,1478.95s-344.484-154.23-344.484-344.48S295.247,789.984,485.5,789.984Z" transform="translate(-140 -789)"/>
</svg>
