<svg id="PenTool-MysticVersion2" xmlns="http://www.w3.org/2000/svg" xmlns:xlink="http://www.w3.org/1999/xlink" width="184.906" height="306.5" viewBox="0 0 184.906 306.5">
  <defs>
    <style>
      .cls-1 {
        fill: #002622;
      }

      .cls-1, .cls-2, .cls-3, .cls-4, .cls-5, .cls-6 {
        fill-rule: evenodd;
      }

      .cls-2 {
        fill: #0dffe8;
      }

      .cls-3 {
        fill: #d8d8d8;
      }

      .cls-4 {
        fill: url(#linear-gradient);
      }

      .cls-5 {
        fill: #fff;
      }

      .cls-6 {
        fill: #00ffe7;
      }
    </style>
    <linearGradient id="linear-gradient" x1="639.202" y1="2947.5" x2="570.986" y2="2833.97" gradientUnits="userSpaceOnUse">
      <stop offset="0" stop-color="#00fcff"/>
      <stop offset="1" stop-color="#008c9d"/>
    </linearGradient>
  </defs>
  <path id="Handle" class="cls-1" d="M462.847,2641.09c7.316-4.44,143.055,193.44,143.055,193.44l-41.332,25.09S455.532,2645.53,462.847,2641.09Z" transform="translate(-462.469 -2641)"/>
  <path id="HandlePattern" class="cls-2" d="M579.4,2847.44s-12.705-13.38-12.882-17.03,1.813-14.67-5.527-27.06,11.4,14.43,12.18,17.45,1.413,13.03,5.476,15.72S579.4,2847.44,579.4,2847.44Zm2.208-31.61s-14.424-25.11-22.451-28.45-20.579-17.24-20.579-17.24,11.972,10.27,18.381,11.91S567.684,2784.81,581.607,2815.83Zm-30.99-46.15a96.789,96.789,0,0,1-22.363-21.87c-10.033-13.79-12.016-20.39-12.016-20.39S527.748,2745.19,550.617,2769.68Zm-47.049-50.9s4.394-11.57-2.914-21.01a116.111,116.111,0,0,1-12.431-21.1s13.468,20.46,16.9,22.25S510.6,2701.19,503.568,2718.78Zm-9.73-8.47s-22.106-44.76-22.554-51.12c8.15,14.92,12.469,16.33,12.469,16.33S480.833,2679.74,493.838,2710.31Z" transform="translate(-462.469 -2641)"/>
  <path id="HandleShine" class="cls-3" d="M564.757,2848.37s-53.838-106.44-57.426-114.58-1.262-13.67,11.093,11.41,51.608,97.1,51.608,97.1Z" transform="translate(-462.469 -2641)"/>
  <path id="Lid" class="cls-4" d="M647.373,2943.68c-3.569-6.17-5.955-10.64-6.04-10.79l-34.174-57.28a17.081,17.081,0,0,0,1.276-3.01l22.12,37.53a0.816,0.816,0,1,0,1.406-.83l-22.943-38.93c0.467-2.33.489-4.76-.457-6.37a9.435,9.435,0,0,0-16.269,9.56c1.756,3,7.011,4.45,10.255,4.44l32.742,57.13c0.084,0.14,3.658,6.2,7.312,12.37l-79.779-48.45c3.337-.25,4.546-40.78,1.556-40.55l41.7-24.52c-0.771,2.75,38.025,20.35,39.056,16.67Z" transform="translate(-462.469 -2641)"/>
  <path id="LidShine" class="cls-5" d="M569.045,2852.54s7.918,24.12,1.448,43.39c5.7,4.21,25.781,14.7,25.781,14.7Z" transform="translate(-462.469 -2641)"/>
  <path id="MiddleConnector" class="cls-6" d="M616.824,2827.66l-61.765,37.35a6.043,6.043,0,0,1-8.3-2.04l0-.01a6.02,6.02,0,0,1,2.037-8.28l61.765-37.35a6.043,6.043,0,0,1,8.3,2.04l0,0.01A6.02,6.02,0,0,1,616.824,2827.66Z" transform="translate(-462.469 -2641)"/>
  <path id="MiddleConnectorShine" class="cls-5" d="M581.417,2836.94l27.211-16.39a2.338,2.338,0,0,1,2.4,4.01l-27.211,16.39A2.338,2.338,0,0,1,581.417,2836.94Z" transform="translate(-462.469 -2641)"/>
</svg>
