<svg id="penToolHeroArea" xmlns="http://www.w3.org/2000/svg" xmlns:xlink="http://www.w3.org/1999/xlink" width="137.75" height="512.531" viewBox="0 0 137.75 512.531">
  <defs>
    <style>
      .cls-1 {
        fill: #202020;
      }

      .cls-1, .cls-2, .cls-3, .cls-4, .cls-5 {
        fill-rule: evenodd;
      }

      .cls-2 {
        fill: #00ffe7;
      }

      .cls-3 {
        fill: #d8d8d8;
      }

      .cls-4 {
        fill: url(#linear-gradient);
        opacity: 0.93;
      }

      .cls-5 {
        fill: #fff;
      }
    </style>
    <linearGradient id="linear-gradient" x1="1724.315" y1="302.125" x2="1724.315" y2="470.156" gradientUnits="userSpaceOnUse">
      <stop offset="-0.075" stop-color="#00ffe4"/>
      <stop offset="0.854" stop-color="#00908d"/>
      <stop offset="1.075" stop-color="#00908d"/>
    </linearGradient>
  </defs>
  <path id="Handle" class="cls-1" d="M1727.34,814.647c-12.35.124-35.1-345.33-35.1-345.33l69.76-.7S1739.68,814.523,1727.34,814.647Z" transform="translate(-1655.44 -302.125)"/>
  <path id="HandlePattern" class="cls-2" d="M1734.63,472.806s5.91,25.959,3.45,30.622-13.05,16.864-13.07,37.641-3.52-26.3-2.26-30.62,7.84-17.209,4.78-23.534S1734.63,472.806,1734.63,472.806Zm-26.01,37.6s-0.59,41.774,6.91,51.825,12.85,36.537,12.85,36.537-7.3-21.555-14.05-28.3S1703.06,559.143,1708.62,510.409Zm4.48,80.075a139.519,139.519,0,0,1,11.64,43.6c2.3,24.5-.1,34.145-0.1,34.145S1723.44,637.7,1713.1,590.484Zm20.91,97.787s-13.98,11.13-11.86,28.223-0.1,35.323-.1,35.323-1.66-35.293-4.6-40.046S1712.33,704.92,1734.01,688.271Zm5.83,17.678s-5.52,71.8-9.65,80.035c0.88-24.523-3.45-29.445-3.45-29.445S1733.48,753.445,1739.84,705.949Z" transform="translate(-1655.44 -302.125)"/>
  <path id="HandleShine" class="cls-3" d="M1753.48,482.435s-11.55,171.7-13.09,184.442-8.51,17.9-5.37-22.322,7.45-158.467,7.45-158.467Z" transform="translate(-1655.44 -302.125)"/>
  <path id="Lid" class="cls-4" d="M1721.14,303.353c-0.12,10.286-.45,17.594-0.45,17.837l0.23,96.238a24.276,24.276,0,0,0-3.8,2.79l0.19-62.848a1.18,1.18,0,0,0-2.36-.007l-0.19,65.19c-2.3,2.553-4.11,5.545-4.13,8.248a13.615,13.615,0,0,0,27.23.106c0.03-5.015-5.42-10.678-9.46-13.05l1.43-94.99c0-.239.03-10.388,0.04-20.74l63.32,118.847c-4.33-2.137-35.66,47.257-31.78,49.171l-69.8-.271c2.99-2.849-32.19-53.246-36.19-49.435Z" transform="translate(-1655.44 -302.125)"/>
  <path id="LidShine" class="cls-5" d="M1751.23,474.1s7.93-35.747,30.14-54.894c-3.96-9.428-21.16-37.224-21.16-37.224Z" transform="translate(-1655.44 -302.125)"/>
  <path id="MiddleConnector" class="cls-2" d="M1673.63,469.8l104.13-.872a8.729,8.729,0,0,1,8.8,8.634v0.017a8.7,8.7,0,0,1-8.63,8.78l-104.13.871a8.713,8.713,0,0,1-8.79-8.633v-0.016A8.69,8.69,0,0,1,1673.63,469.8Z" transform="translate(-1655.44 -302.125)"/>
  <path id="MiddleConnectorShine" class="cls-5" d="M1724.4,484.348l-45.83.306a3.372,3.372,0,1,1-.03-6.744l45.83-.306A3.372,3.372,0,0,1,1724.4,484.348Z" transform="translate(-1655.44 -302.125)"/>
</svg>
