<svg id="PenTool" xmlns="http://www.w3.org/2000/svg" width="261.844" height="351.906" viewBox="0 0 261.844 351.906">
  <defs>
    <style>
      .cls-1 {
        fill: #414141;
      }

      .cls-1, .cls-2, .cls-3, .cls-4, .cls-5 {
        fill-rule: evenodd;
      }

      .cls-2 {
        fill: #d8d8d8;
      }

      .cls-3 {
        fill: #909090;
      }

      .cls-4 {
        fill: #fff;
      }

      .cls-5 {
        fill: #00fcff;
      }
    </style>
  </defs>
  <path id="Handle" class="cls-1" d="M164.147,209.061c8.4-6.276,197.214,219.131,197.214,219.131L313.9,463.652S155.746,215.337,164.147,209.061Z" transform="translate(-163.844 -208.938)"/>
  <path id="HandleShine" class="cls-2" d="M320.776,378.957l10.577,12.518a2.77,2.77,0,0,1-.3,3.871,2.69,2.69,0,0,1-3.824-.3l-10.577-12.518a2.77,2.77,0,0,1,.3-3.871A2.69,2.69,0,0,1,320.776,378.957ZM312.8,449.905S234.628,326.41,229.3,316.9s-3.146-16.532,14.871,12.612,74.355,112.366,74.355,112.366Z" transform="translate(-163.844 -208.938)"/>
  <path id="Lid" class="cls-3" d="M416.857,543.212l-49.41-65.292c1.558-3.665,2.676-10.918.13-14.342a11.557,11.557,0,1,0-18.517,13.833c2.546,3.425,9.144,4.488,13.093,4.038L409.8,546.741c0.122,0.164,5.3,7.075,10.588,14.117L316.625,512.42c4.03-.76,0-50.333-3.614-49.652l47.466-35.46c-0.566,3.46,49.083,19.746,49.839,15.119L425.68,555.564C420.494,548.515,416.98,543.378,416.857,543.212Z" transform="translate(-163.844 -208.938)"/>
  <path id="LidShine" class="cls-4" d="M318.522,454.491s12.491,28.479,6.863,52.743c7.445,4.475,33.174,14.906,33.174,14.906Z" transform="translate(-163.844 -208.938)"/>
  <path id="Rounded_Rectangle_1" data-name="Rounded Rectangle 1" class="cls-4" d="M396.8,509.757a1,1,0,0,1-1.4-.187l-27.007-35.358L369,473v-1.289l27.99,36.645A1,1,0,0,1,396.8,509.757Z" transform="translate(-163.844 -208.938)"/>
  <path id="MiddleConnector" class="cls-5" d="M373.874,418.528L302.928,471.34a7.408,7.408,0,0,1-10.358-1.51l-0.008-.011a7.386,7.386,0,0,1,1.511-10.344l70.947-52.812a7.407,7.407,0,0,1,10.357,1.51l0.009,0.011A7.386,7.386,0,0,1,373.874,418.528Z" transform="translate(-163.844 -208.938)"/>
  <path id="MiddleConnectorShine" class="cls-4" d="M331.915,434.261l30.925-23.639a2.864,2.864,0,0,1,3.469,4.559l-30.925,23.638A2.864,2.864,0,0,1,331.915,434.261Z" transform="translate(-163.844 -208.938)"/>
</svg>
