<svg xmlns="http://www.w3.org/2000/svg" width="330.22" height="329.06" viewBox="0 0 330.22 329.06">
  <defs>
    <style>
      .cls-1 {
        opacity: 0.8;
      }

      .cls-2, .cls-3 {
        fill: #00ffe8;
        fill-rule: evenodd;
      }

      .cls-2 {
        opacity: 0.16;
      }

      .cls-3 {
        opacity: 0.85;
      }
    </style>
  </defs>
  <g id="spinningMidSkills" class="cls-1">
    <path id="spinningMiddle2" class="cls-2" d="M1495.64,3348.54l-1.85-3.83a164.651,164.651,0,0,0,5.67-17.1,160.75,160.75,0,0,0,3.27-69.89l3.01-1.1a163.952,163.952,0,0,1-3.23,71.81A165.773,165.773,0,0,1,1495.64,3348.54Zm-43.18-182.49,2.2-2.26a165.278,165.278,0,0,1,47.64,77.7l-3.01.95A162.225,162.225,0,0,0,1452.46,3166.05Zm-66.95-36.67c-1.01-.28-2.02-0.52-3.03-0.77a20.77,20.77,0,0,0,.4-3.14c1.16,0.28,2.31.56,3.46,0.87a164.369,164.369,0,0,1,64.75,34.26l-2.74,1.82A161.161,161.161,0,0,0,1385.51,3129.38Zm-167.82,258.33a160.886,160.886,0,0,0,70.98,50.01l-0.68,3.11a164.012,164.012,0,0,1-73.65-52.25Zm14.32-219.75-0.3-4.02a165.78,165.78,0,0,1,97.46-42.73l0.63,3.11A162.69,162.69,0,0,0,1232.01,3167.96Zm-45.12,75.33a161.612,161.612,0,0,0-5.6,38.11l-3.16.11a165.17,165.17,0,0,1,36.39-99.28c-0.9,2.89-1.7,5.69-2.41,8.33A161.273,161.273,0,0,0,1186.89,3243.29Zm16.18,123.28-3.1.93a164.48,164.48,0,0,1-21.9-80.42l3.16,0.01A161.262,161.262,0,0,0,1203.07,3366.57Zm196.25,70.48,1,2.97a164.436,164.436,0,0,1-84.9,7.92l1-3.02A161.348,161.348,0,0,0,1399.32,3437.05Zm8.54-3.46a162.514,162.514,0,0,0,65.31-51.78l1.7,2.97a165.655,165.655,0,0,1-66.51,52.02Z" transform="translate(-1178.06 -3121.22)"/>
    <path id="spinningMiddle" class="cls-3" d="M1495.64,3348.54l-1.85-3.83a164.651,164.651,0,0,0,5.67-17.1,160.75,160.75,0,0,0,3.27-69.89l3.01-1.1a163.952,163.952,0,0,1-3.23,71.81A165.773,165.773,0,0,1,1495.64,3348.54Zm-110.13-219.16c-1.01-.28-2.02-0.52-3.03-0.77a20.77,20.77,0,0,0,.4-3.14c1.16,0.28,2.31.56,3.46,0.87a164.369,164.369,0,0,1,64.75,34.26l-2.74,1.82A161.161,161.161,0,0,0,1385.51,3129.38Zm-153.5,38.58-0.3-4.02a165.78,165.78,0,0,1,97.46-42.73l0.63,3.11A162.69,162.69,0,0,0,1232.01,3167.96Zm-28.94,198.61-3.1.93a164.48,164.48,0,0,1-21.9-80.42l3.16,0.01A161.262,161.262,0,0,0,1203.07,3366.57Zm196.25,70.48,1,2.97a164.436,164.436,0,0,1-84.9,7.92l1-3.02A161.348,161.348,0,0,0,1399.32,3437.05Z" transform="translate(-1178.06 -3121.22)"/>
  </g>
</svg>
