<svg id="spinningInner" xmlns="http://www.w3.org/2000/svg" width="338.96" height="337.75" viewBox="0 0 338.96 337.75">
  <defs>
    <style>
      .cls-1 {
        fill: #005c53;
      }

      .cls-1, .cls-2 {
        fill-rule: evenodd;
      }

      .cls-2 {
        fill: #00ffe5;
      }
    </style>
  </defs>
  <path id="spinningInner2" class="cls-1" d="M1596.38,642.543l-1.9-3.933a168,168,0,0,0,5.83-17.551,164.981,164.981,0,0,0,3.35-71.724l3.09-1.129a168.12,168.12,0,0,1-3.32,73.695A170.556,170.556,0,0,1,1596.38,642.543Zm-44.32-187.3,2.26-2.319a169.732,169.732,0,0,1,48.9,79.746l-3.09.978A166.43,166.43,0,0,0,1552.06,455.247Zm-68.73-37.633c-1.04-.281-2.07-0.527-3.11-0.786a21.748,21.748,0,0,0,.41-3.229c1.18,0.291,2.37.575,3.55,0.894a168.79,168.79,0,0,1,66.47,35.166l-2.81,1.867A165.539,165.539,0,0,0,1483.33,417.614Zm-172.28,265.12a165.131,165.131,0,0,0,72.87,51.334l-0.71,3.184a168.363,168.363,0,0,1-75.6-53.622Zm14.7-225.521-0.31-4.123a170.26,170.26,0,0,1,100.05-43.863l0.65,3.2A167,167,0,0,0,1325.75,457.213Zm-46.32,77.306a165.981,165.981,0,0,0-5.75,39.114l-3.24.114a169.664,169.664,0,0,1,37.35-101.891c-0.91,2.968-1.74,5.836-2.47,8.546A165.533,165.533,0,0,0,1279.43,534.519Zm16.61,126.528-3.18.953a168.7,168.7,0,0,1-22.48-82.539l3.24,0.012A165.623,165.623,0,0,0,1296.04,661.047Zm201.46,72.332,1.03,3.05a168.847,168.847,0,0,1-87.16,8.123l1.03-3.1A165.615,165.615,0,0,0,1497.5,733.379Zm8.78-3.557a166.7,166.7,0,0,0,67.03-53.136l1.76,3.047a170.118,170.118,0,0,1-68.28,53.385Z" transform="translate(-1270.38 -409.219)"/>
  <path id="spinningInner-2" data-name="spinningInner" class="cls-2" d="M1596.38,642.543l-1.9-3.933a168,168,0,0,0,5.83-17.551,164.981,164.981,0,0,0,3.35-71.724l3.09-1.129a168.12,168.12,0,0,1-3.32,73.695A170.556,170.556,0,0,1,1596.38,642.543ZM1483.33,417.614c-1.04-.281-2.07-0.527-3.11-0.786a21.748,21.748,0,0,0,.41-3.229c1.18,0.291,2.37.575,3.55,0.894a168.79,168.79,0,0,1,66.47,35.166l-2.81,1.867A165.539,165.539,0,0,0,1483.33,417.614Zm-157.58,39.6-0.31-4.123a170.26,170.26,0,0,1,100.05-43.863l0.65,3.2A167,167,0,0,0,1325.75,457.213Zm-29.71,203.834-3.18.953a168.7,168.7,0,0,1-22.48-82.539l3.24,0.012A165.623,165.623,0,0,0,1296.04,661.047Zm201.46,72.332,1.03,3.05a168.847,168.847,0,0,1-87.16,8.123l1.03-3.1A165.615,165.615,0,0,0,1497.5,733.379Zm8.78-3.557a166.7,166.7,0,0,0,67.03-53.136l1.76,3.047a170.118,170.118,0,0,1-68.28,53.385Z" transform="translate(-1270.38 -409.219)"/>
</svg>
