<svg xmlns="http://www.w3.org/2000/svg" width="363.44" height="362.94" viewBox="0 0 363.44 362.94">
  <defs>
    <style>
      .cls-1, .cls-3 {
        opacity: 0.9;
      }

      .cls-2, .cls-3 {
        fill: #00ffe5;
        fill-rule: evenodd;
      }

      .cls-2 {
        opacity: 0.75;
      }
    </style>
  </defs>
  <g id="spinningOuterSkills" class="cls-1">
    <path id="spinningOuter2" class="cls-2" d="M1523.94,3309.13l-3.07-3.54a180.384,180.384,0,0,0,1.1-19.83,177.423,177.423,0,0,0-16.68-75.31l2.89-2.04a180.954,180.954,0,0,1,17.26,77.35A183.847,183.847,0,0,1,1523.94,3309.13Zm-98.5-181.81,1.69-3.04a182.6,182.6,0,0,1,73.03,69.01l-2.92,1.88A179.018,179.018,0,0,0,1425.44,3127.32Zm-81.72-19.81c-1.15,0-2.29.04-3.44,0.06a24.708,24.708,0,0,0-.48-3.47c1.31-.02,2.61-0.06,3.92-0.06a180.947,180.947,0,0,1,78.69,17.88l-2.38,2.72A177.465,177.465,0,0,0,1343.72,3107.51Zm-103.88,323.1a177.348,177.348,0,0,0,89.86,32.85l0.16,3.49a180.768,180.768,0,0,1-93.33-34.45Zm-48.13-237.97-1.48-4.18a182.322,182.322,0,0,1,91.26-73.47l1.57,3.14A178.832,178.832,0,0,0,1191.71,3192.64Zm-26.23,93.12a178.666,178.666,0,0,0,5.03,42.17l-3.33,1.02a182.251,182.251,0,0,1,10.06-116.1c-0.12,3.33-.17,6.54-0.16,9.55A177.813,177.813,0,0,0,1165.48,3285.76Zm52.73,126.55-3.02,1.88a181.648,181.648,0,0,1-46.46-79.3l3.36-.89A178.132,178.132,0,0,0,1218.21,3412.31Zm228.88,18.67,1.92,2.87a180.672,180.672,0,0,1-87.94,32.8l0.19-3.51A177.239,177.239,0,0,0,1447.09,3430.98Zm8.09-6.15a178.586,178.586,0,0,0,54.47-73.84l2.67,2.67a182.188,182.188,0,0,1-55.69,74.45Z" transform="translate(-1162 -3104.03)"/>
    <path id="spinningOuter" class="cls-3" d="M1523.94,3309.13l-3.07-3.54a180.384,180.384,0,0,0,1.1-19.83,177.423,177.423,0,0,0-16.68-75.31l2.89-2.04a180.954,180.954,0,0,1,17.26,77.35A183.847,183.847,0,0,1,1523.94,3309.13Zm-98.5-181.81,1.69-3.04a182.6,182.6,0,0,1,73.03,69.01l-2.92,1.88A179.018,179.018,0,0,0,1425.44,3127.32Zm-185.6,303.29a177.348,177.348,0,0,0,89.86,32.85l0.16,3.49a180.768,180.768,0,0,1-93.33-34.45Zm-48.13-237.97-1.48-4.18a182.322,182.322,0,0,1,91.26-73.47l1.57,3.14A178.832,178.832,0,0,0,1191.71,3192.64Zm26.5,219.67-3.02,1.88a181.648,181.648,0,0,1-46.46-79.3l3.36-.89A178.132,178.132,0,0,0,1218.21,3412.31Zm236.97,12.52a178.586,178.586,0,0,0,54.47-73.84l2.67,2.67a182.188,182.188,0,0,1-55.69,74.45Z" transform="translate(-1162 -3104.03)"/>
  </g>
</svg>
