<svg xmlns="http://www.w3.org/2000/svg" width="387" height="386.468" viewBox="0 0 387 386.468">
  <defs>
    <style>
      .cls-1 {
        opacity: 0.7;
      }

      .cls-2 {
        fill: #006c61;
      }

      .cls-2, .cls-3 {
        fill-rule: evenodd;
      }

      .cls-3 {
        fill: #00ffe5;
      }
    </style>
  </defs>
  <g id="spinningMid" class="cls-1">
    <path id="spinningOuter2" class="cls-2" d="M1631.78,602.344l-3.27-3.776a191.24,191.24,0,0,0,1.18-21.116,188.981,188.981,0,0,0-17.76-80.195l3.07-2.167a192.648,192.648,0,0,1,18.38,82.362A194.72,194.72,0,0,1,1631.78,602.344ZM1526.9,408.731l1.8-3.233a194.355,194.355,0,0,1,77.76,73.492l-3.11,2A190.667,190.667,0,0,0,1526.9,408.731Zm-87.02-21.088c-1.23,0-2.45.037-3.67,0.061a25.171,25.171,0,0,0-.51-3.69c1.39-.03,2.78-0.069,4.18-0.069a192.705,192.705,0,0,1,83.79,19.036l-2.53,2.9A189.085,189.085,0,0,0,1439.88,387.643ZM1329.25,731.7a188.824,188.824,0,0,0,95.69,34.982l0.18,3.724a192.481,192.481,0,0,1-99.39-36.693ZM1278,478.3l-1.57-4.463a194.1,194.1,0,0,1,97.18-78.228l1.66,3.338A190.474,190.474,0,0,0,1278,478.3Zm-27.93,99.153a189.862,189.862,0,0,0,5.36,44.9l-3.54,1.089a194.083,194.083,0,0,1,10.7-123.631c-0.12,3.551-.17,6.962-0.17,10.171A189.474,189.474,0,0,0,1250.07,577.452Zm56.16,134.765-3.23,2a193.288,193.288,0,0,1-49.46-84.446l3.57-.953A189.667,189.667,0,0,0,1306.23,712.217Zm243.72,19.874,2.05,3.063a192.459,192.459,0,0,1-93.65,34.923l0.2-3.731A188.726,188.726,0,0,0,1549.95,732.091Zm8.61-6.54a190.31,190.31,0,0,0,58.01-78.636l2.84,2.842a193.968,193.968,0,0,1-59.3,79.281Z" transform="translate(-1246.38 -383.938)"/>
    <path id="spinningOuter" class="cls-3" d="M1631.78,602.344l-3.27-3.776a191.24,191.24,0,0,0,1.18-21.116,188.981,188.981,0,0,0-17.76-80.195l3.07-2.167a192.648,192.648,0,0,1,18.38,82.362A194.72,194.72,0,0,1,1631.78,602.344ZM1526.9,408.731l1.8-3.233a194.355,194.355,0,0,1,77.76,73.492l-3.11,2A190.667,190.667,0,0,0,1526.9,408.731ZM1329.25,731.7a188.824,188.824,0,0,0,95.69,34.982l0.18,3.724a192.481,192.481,0,0,1-99.39-36.693ZM1278,478.3l-1.57-4.463a194.1,194.1,0,0,1,97.18-78.228l1.66,3.338A190.474,190.474,0,0,0,1278,478.3Zm28.23,233.918-3.23,2a193.288,193.288,0,0,1-49.46-84.446l3.57-.953A189.667,189.667,0,0,0,1306.23,712.217Zm252.33,13.334a190.31,190.31,0,0,0,58.01-78.636l2.84,2.842a193.968,193.968,0,0,1-59.3,79.281Z" transform="translate(-1246.38 -383.938)"/>
  </g>
</svg>
