<svg id="spinningInnerSkills" xmlns="http://www.w3.org/2000/svg" width="297.68" height="296.63" viewBox="0 0 297.68 296.63">
  <defs>
    <style>
      .cls-1, .cls-2 {
        fill: #00ffe5;
        fill-rule: evenodd;
      }

      .cls-1 {
        opacity: 0.5;
      }

      .cls-2 {
        opacity: 0.9;
      }
    </style>
  </defs>
  <path id="spinningInner2" class="cls-1" d="M1481.18,3342.91l-1.67-3.45a147.335,147.335,0,0,0,5.11-15.42,144.883,144.883,0,0,0,2.95-62.99l2.71-.99a147.684,147.684,0,0,1-2.91,64.72A151.624,151.624,0,0,1,1481.18,3342.91Zm-38.93-164.5,1.98-2.03a148.979,148.979,0,0,1,42.95,70.04l-2.71.85A146.231,146.231,0,0,0,1442.25,3178.41Zm-60.36-33.05c-0.91-.24-1.83-0.46-2.74-0.69a19.514,19.514,0,0,0,.37-2.83c1.04,0.25,2.07.5,3.11,0.78a148.228,148.228,0,0,1,58.38,30.89l-2.47,1.64A145.254,145.254,0,0,0,1381.89,3145.36Zm-151.31,232.85a144.974,144.974,0,0,0,64,45.08l-0.62,2.8a147.842,147.842,0,0,1-66.4-47.1Zm12.91-198.07-0.27-3.62a149.448,149.448,0,0,1,87.87-38.52l0.57,2.8A146.72,146.72,0,0,0,1243.49,3180.14Zm-40.68,67.9a145.715,145.715,0,0,0-5.05,34.35l-2.85.1a148.891,148.891,0,0,1,32.81-89.49c-0.81,2.61-1.53,5.13-2.17,7.51A145.244,145.244,0,0,0,1202.81,3248.04Zm14.59,111.12-2.8.84a148.26,148.26,0,0,1-19.74-72.49l2.85,0.01A145.313,145.313,0,0,0,1217.4,3359.16Zm176.93,63.53,0.9,2.68a148.268,148.268,0,0,1-76.54,7.13l0.9-2.72A145.614,145.614,0,0,0,1394.33,3422.69Zm7.71-3.13a146.556,146.556,0,0,0,58.88-46.66l1.53,2.67a149.314,149.314,0,0,1-59.96,46.89Z" transform="translate(-1194.88 -3138)"/>
  <path id="spinningInner" class="cls-2" d="M1481.18,3342.91l-1.67-3.45a147.335,147.335,0,0,0,5.11-15.42,144.883,144.883,0,0,0,2.95-62.99l2.71-.99a147.684,147.684,0,0,1-2.91,64.72A151.624,151.624,0,0,1,1481.18,3342.91Zm-99.29-197.55c-0.91-.24-1.83-0.46-2.74-0.69a19.514,19.514,0,0,0,.37-2.83c1.04,0.25,2.07.5,3.11,0.78a148.228,148.228,0,0,1,58.38,30.89l-2.47,1.64A145.254,145.254,0,0,0,1381.89,3145.36Zm-138.4,34.78-0.27-3.62a149.448,149.448,0,0,1,87.87-38.52l0.57,2.8A146.72,146.72,0,0,0,1243.49,3180.14Zm-26.09,179.02-2.8.84a148.26,148.26,0,0,1-19.74-72.49l2.85,0.01A145.313,145.313,0,0,0,1217.4,3359.16Zm176.93,63.53,0.9,2.68a148.268,148.268,0,0,1-76.54,7.13l0.9-2.72A145.614,145.614,0,0,0,1394.33,3422.69Zm7.71-3.13a146.556,146.556,0,0,0,58.88-46.66l1.53,2.67a149.314,149.314,0,0,1-59.96,46.89Z" transform="translate(-1194.88 -3138)"/>
</svg>
