<svg xmlns="http://www.w3.org/2000/svg" width="452.41" height="450.875" viewBox="0 0 452.41 450.875">
  <defs>
    <style>
      .cls-1 {
        opacity: 0.3;
      }

      .cls-2 {
        fill: #005149;
      }

      .cls-2, .cls-3 {
        fill-rule: evenodd;
      }

      .cls-3 {
        fill: #00ffe5;
      }
    </style>
  </defs>
  <g id="spinningOuter" class="cls-1">
    <path id="spinningMiddle2" class="cls-2" d="M1648.17,666.537l-2.54-5.25a221.5,221.5,0,0,0,12.26-119.18l4.12-1.507a224.562,224.562,0,0,1-4.43,98.382A228.438,228.438,0,0,1,1648.17,666.537ZM1589.02,416.5l3.01-3.1a226.6,226.6,0,0,1,65.27,106.461l-4.12,1.306A222.271,222.271,0,0,0,1589.02,416.5Zm-91.73-50.241c-1.39-.373-2.77-0.7-4.16-1.047a29.423,29.423,0,0,0,.56-4.313c1.58,0.39,3.15.769,4.73,1.2a225.162,225.162,0,0,1,88.71,46.945l-3.74,2.493A220.948,220.948,0,0,0,1497.29,366.26ZM1267.35,720.193a220.432,220.432,0,0,0,97.26,68.531l-0.94,4.25a224.753,224.753,0,0,1-100.91-71.585Zm19.62-301.067-0.41-5.5a227.212,227.212,0,0,1,133.53-58.557l0.86,4.271A222.9,222.9,0,0,0,1286.97,419.126Zm-61.81,103.2a221.675,221.675,0,0,0-7.68,52.217l-4.33.15a226.38,226.38,0,0,1,49.86-136.02c-1.23,3.962-2.32,7.79-3.3,11.407A221.02,221.02,0,0,0,1225.16,522.328Zm22.17,168.913-4.25,1.272a225.118,225.118,0,0,1-30-110.186l4.32,0.014A220.922,220.922,0,0,0,1247.33,691.241ZM1516.21,787.8l1.36,4.072a225.255,225.255,0,0,1-116.32,10.843l1.38-4.14A221.013,221.013,0,0,0,1516.21,787.8Zm11.7-4.748a222.654,222.654,0,0,0,89.48-70.936l2.33,4.066a227,227,0,0,1-91.12,71.27Z" transform="translate(-1213.09 -355.063)"/>
    <path id="spinningMiddle" class="cls-3" d="M1648.17,666.537l-2.54-5.25a221.5,221.5,0,0,0,12.26-119.18l4.12-1.507a224.562,224.562,0,0,1-4.43,98.382A228.438,228.438,0,0,1,1648.17,666.537ZM1497.29,366.26c-1.39-.373-2.77-0.7-4.16-1.047a29.423,29.423,0,0,0,.56-4.313c1.58,0.39,3.15.769,4.73,1.2a225.162,225.162,0,0,1,88.71,46.945l-3.74,2.493A220.948,220.948,0,0,0,1497.29,366.26Zm-210.32,52.866-0.41-5.5a227.212,227.212,0,0,1,133.53-58.557l0.86,4.271A222.9,222.9,0,0,0,1286.97,419.126Zm-39.64,272.115-4.25,1.272a225.118,225.118,0,0,1-30-110.186l4.32,0.014A220.922,220.922,0,0,0,1247.33,691.241ZM1516.21,787.8l1.36,4.072a225.255,225.255,0,0,1-116.32,10.843l1.38-4.14A221.013,221.013,0,0,0,1516.21,787.8Z" transform="translate(-1213.09 -355.063)"/>
  </g>
</svg>
